<svg width="80" height="81" viewBox="0 0 80 81" fill="none" xmlns="http://www.w3.org/2000/svg">
<ellipse cx="40" cy="40.0204" rx="40" ry="40.0103" fill="#4AC3CA"/>
<g clip-path="url(#clip0_46_136)">
<path d="M48.125 20.6404H31.875C31.2122 20.6412 30.5768 20.905 30.1082 21.3738C29.6395 21.8425 29.3759 22.4781 29.375 23.141L29.375 56.8997C29.3759 57.5627 29.6395 58.1982 30.1082 58.667C30.5768 59.1357 31.2122 59.3995 31.875 59.4004H48.125C48.7878 59.3995 49.4232 59.1357 49.8918 58.667C50.3605 58.1982 50.6241 57.5627 50.625 56.8997V23.141C50.6241 22.4781 50.3605 21.8425 49.8918 21.3738C49.4232 20.905 48.7878 20.6412 48.125 20.6404ZM42.925 21.8907L42.5734 23.141H37.3633L37.0508 21.8907H42.925ZM49.375 56.8997C49.3746 57.2312 49.2427 57.549 49.0084 57.7833C48.7741 58.0177 48.4564 58.1496 48.125 58.15H31.875C31.5436 58.1496 31.2259 58.0177 30.9916 57.7833C30.7573 57.549 30.6254 57.2312 30.625 56.8997L30.625 23.141C30.6254 22.8096 30.7573 22.4918 30.9916 22.2574C31.2259 22.023 31.5436 21.8911 31.875 21.8907H35.7617L36.2687 23.9178C36.3025 24.053 36.3806 24.1731 36.4904 24.2589C36.6003 24.3447 36.7356 24.3913 36.875 24.3913H43.0469C43.1831 24.3913 43.3156 24.3468 43.4241 24.2646C43.5327 24.1824 43.6115 24.0669 43.6484 23.9358L44.2234 21.8907H48.125C48.4564 21.8911 48.7741 22.023 49.0084 22.2574C49.2427 22.4918 49.3746 22.8096 49.375 23.141V56.8997Z" fill="white"/>
<path d="M36.875 55.6494H32.5C32.3342 55.6494 32.1753 55.7153 32.0581 55.8325C31.9408 55.9498 31.875 56.1088 31.875 56.2746C31.875 56.4404 31.9408 56.5994 32.0581 56.7166C32.1753 56.8339 32.3342 56.8997 32.5 56.8997H36.875C37.0408 56.8997 37.1997 56.8339 37.3169 56.7166C37.4342 56.5994 37.5 56.4404 37.5 56.2746C37.5 56.1088 37.4342 55.9498 37.3169 55.8325C37.1997 55.7153 37.0408 55.6494 36.875 55.6494Z" fill="white"/>
<path d="M39.375 55.6494H38.75C38.5842 55.6494 38.4253 55.7153 38.3081 55.8325C38.1908 55.9498 38.125 56.1088 38.125 56.2746C38.125 56.4404 38.1908 56.5994 38.3081 56.7166C38.4253 56.8339 38.5842 56.8997 38.75 56.8997H39.375C39.5408 56.8997 39.6997 56.8339 39.8169 56.7166C39.9342 56.5994 40 56.4404 40 56.2746C40 56.1088 39.9342 55.9498 39.8169 55.8325C39.6997 55.7153 39.5408 55.6494 39.375 55.6494Z" fill="white"/>
<path d="M42.1966 36.3585C42.1262 36.3163 42.0482 36.2883 41.967 36.2762C41.8858 36.2641 41.803 36.2682 41.7234 36.2881C41.6438 36.308 41.5689 36.3434 41.5029 36.3923C41.437 36.4411 41.3813 36.5025 41.3391 36.5729L37.5891 42.8245C37.5038 42.9667 37.4785 43.137 37.5187 43.2978C37.5589 43.4587 37.6613 43.597 37.8034 43.6823C37.9456 43.7676 38.1158 43.7929 38.2766 43.7527C38.4374 43.7125 38.5757 43.61 38.6609 43.4678L42.4109 37.2162C42.4532 37.1458 42.4811 37.0678 42.4932 36.9866C42.5053 36.9054 42.5013 36.8226 42.4814 36.743C42.4614 36.6633 42.4261 36.5884 42.3772 36.5224C42.3283 36.4564 42.267 36.4007 42.1966 36.3585Z" fill="white"/>
<path d="M44.238 36.5038C44.1868 36.4397 44.1233 36.3864 44.0514 36.3468C43.9795 36.3072 43.9005 36.2821 43.8189 36.2731C43.6541 36.2548 43.4888 36.3028 43.3594 36.4064C43.2299 36.51 43.147 36.6608 43.1287 36.8257C43.1104 36.9905 43.1584 37.1558 43.262 37.2853L45.4495 40.0204L43.262 42.7554C43.1584 42.8849 43.1104 43.0503 43.1287 43.2151C43.147 43.3799 43.2299 43.5307 43.3594 43.6343C43.4888 43.738 43.6541 43.7859 43.8189 43.7676C43.9837 43.7494 44.1344 43.6664 44.238 43.5369L46.738 40.4111C46.8268 40.3002 46.8752 40.1624 46.8752 40.0204C46.8752 39.8783 46.8268 39.7405 46.738 39.6296L44.238 36.5038Z" fill="white"/>
<path d="M35.762 43.5369C35.8656 43.6664 36.0163 43.7494 36.1811 43.7676C36.3459 43.7859 36.5112 43.738 36.6406 43.6343C36.7701 43.5307 36.8531 43.3799 36.8713 43.2151C36.8896 43.0503 36.8417 42.8849 36.7381 42.7554L34.5506 40.0204L36.7381 37.2853C36.7894 37.2212 36.8275 37.1476 36.8504 37.0687C36.8733 36.9899 36.8804 36.9073 36.8713 36.8257C36.8623 36.7441 36.8372 36.665 36.7977 36.5931C36.7581 36.5211 36.7047 36.4577 36.6406 36.4064C36.5765 36.3551 36.503 36.3169 36.4241 36.294C36.3453 36.2712 36.2627 36.264 36.1811 36.2731C36.0995 36.2821 36.0205 36.3072 35.9486 36.3468C35.8767 36.3864 35.8133 36.4397 35.762 36.5038L33.262 39.6296C33.1732 39.7405 33.1248 39.8783 33.1248 40.0204C33.1248 40.1624 33.1732 40.3002 33.262 40.4111L35.762 43.5369Z" fill="white"/>
</g>
<defs>
<clipPath id="clip0_46_136">
<rect width="40" height="40.0103" fill="white" transform="translate(20 20.0152)"/>
</clipPath>
</defs>
</svg>