<svg width="80" height="81" viewBox="0 0 80 81" fill="none" xmlns="http://www.w3.org/2000/svg">
<ellipse cx="40" cy="40.0204" rx="40" ry="40.0103" fill="#9C19C9"/>
<g clip-path="url(#clip0_46_92)">
<path d="M59.6531 49.1258L55.5531 47.0753L52.9438 40.286C52.913 40.2058 52.8661 40.1327 52.8059 40.0714C52.7457 40.0101 52.6735 39.9618 52.5938 39.9297L36.4031 33.4561C36.2899 33.4111 36.166 33.4001 36.0467 33.4245C35.9273 33.4489 35.8177 33.5077 35.7313 33.5937L33.5719 35.7536C33.4871 35.8401 33.4293 35.9494 33.4054 36.0681C33.3816 36.1869 33.3927 36.31 33.4375 36.4225L39.9094 52.6173C39.9415 52.697 39.9897 52.7693 40.051 52.8295C40.1123 52.8897 40.1854 52.9367 40.2656 52.9674L47.0531 55.5775L49.1031 59.6785C49.1463 59.7689 49.2106 59.8477 49.2905 59.908C49.3705 59.9684 49.4637 60.0087 49.5625 60.0255C49.5958 60.0286 49.6293 60.0286 49.6625 60.0255C49.828 60.0248 49.9865 59.9585 50.1031 59.8411L59.8156 50.1261C59.8871 50.0571 59.9411 49.972 59.9732 49.878C60.0053 49.7839 60.0145 49.6836 60 49.5853C59.9832 49.4865 59.943 49.3932 59.8826 49.3132C59.8222 49.2333 59.7435 49.169 59.6531 49.1258ZM34.7469 36.3413L35.0938 35.9974L43.1531 44.0589C42.622 44.8117 42.3926 45.7365 42.5103 46.6503C42.628 47.5642 43.0843 48.4006 43.7889 48.9942C44.4934 49.5877 45.395 49.8953 46.3153 49.8559C47.2357 49.8166 48.1077 49.4332 48.7591 48.7817C49.4105 48.1302 49.7937 47.2579 49.8331 46.3373C49.8724 45.4167 49.565 44.5149 48.9715 43.8101C48.3781 43.1054 47.5419 42.649 46.6283 42.5313C45.7147 42.4135 44.7901 42.643 44.0375 43.1743L35.9781 35.1128L36.3219 34.7659L51.875 40.9893L54.3281 47.3722L47.35 54.3521L40.9688 51.8984L34.7469 36.3413ZM46.1563 43.7494C46.718 43.7503 47.262 43.9459 47.6957 44.3029C48.1294 44.66 48.4259 45.1564 48.5348 45.7076C48.6436 46.2588 48.558 46.8307 48.2926 47.3259C48.0271 47.8211 47.5982 48.2089 47.079 48.4232C46.5598 48.6376 45.9823 48.6652 45.445 48.5015C44.9077 48.3377 44.4437 47.9927 44.1322 47.5252C43.8206 47.0576 43.6808 46.4965 43.7365 45.9374C43.7922 45.3783 44.0399 44.8558 44.4375 44.459C44.8938 44.004 45.512 43.7488 46.1563 43.7494ZM49.8344 58.3438L48.2719 55.218L55.1875 48.3006L58.3125 49.8635L49.8344 58.3438Z" fill="white"/>
<path d="M31.9531 53.4613C31.8336 53.3483 31.6754 53.2854 31.5109 53.2854C31.3465 53.2854 31.1882 53.3483 31.0687 53.4613L30.275 54.2553C28.1568 51.3797 26.9882 47.9147 26.9322 44.3433C26.8762 40.7719 27.9355 37.272 29.9625 34.3314C30.5697 34.6656 31.269 34.794 31.9553 34.6973C32.6417 34.6006 33.2783 34.284 33.7696 33.795C34.261 33.306 34.5807 32.6709 34.6808 31.9848C34.7809 31.2988 34.6561 30.5987 34.325 29.9896C37.2648 27.9622 40.7639 26.9026 44.3343 26.9586C47.9048 27.0146 51.3689 28.1835 54.2437 30.3022L53.4375 31.0868C53.3212 31.204 53.2561 31.3624 53.2562 31.5275C53.2557 31.6098 53.2715 31.6914 53.3026 31.7675C53.3337 31.8437 53.3795 31.913 53.4375 31.9714L56.1937 34.7065C56.3108 34.8229 56.4692 34.8883 56.6343 34.8883C56.7995 34.8883 56.9579 34.8229 57.075 34.7065L59.8156 31.9651C59.8737 31.9071 59.9198 31.8381 59.9512 31.7622C59.9827 31.6864 59.9989 31.605 59.9989 31.5228C59.9989 31.4407 59.9827 31.3593 59.9512 31.2834C59.9198 31.2076 59.8737 31.1386 59.8156 31.0805L57.075 28.3392C56.9579 28.2228 56.7995 28.1574 56.6343 28.1574C56.4692 28.1574 56.3108 28.2228 56.1937 28.3392L55.1343 29.3926C52.5234 27.4274 49.4366 26.1927 46.1909 25.8153C42.9452 25.4379 39.6576 25.9314 36.6656 27.2452L40.2687 23.6505C40.6773 23.8458 41.1417 23.89 41.5798 23.7753C42.0178 23.6606 42.401 23.3944 42.6615 23.0239C42.922 22.6534 43.0429 22.2027 43.0027 21.7516C42.9625 21.3004 42.7638 20.8781 42.442 20.5596C42.1201 20.241 41.6959 20.0468 41.2445 20.0114C40.7931 19.9759 40.3437 20.1016 39.9761 20.366C39.6085 20.6304 39.3465 21.0166 39.2364 21.4559C39.1264 21.8952 39.1755 22.3593 39.375 22.7659L33.2937 28.8581C32.6763 28.4438 31.9342 28.2568 31.1942 28.329C30.4542 28.4013 29.7622 28.7282 29.2365 29.2541C28.7108 29.78 28.3839 30.4721 28.3117 31.2123C28.2395 31.9525 28.4264 32.6948 28.8406 33.3124L22.75 39.3952C22.3419 39.1963 21.8766 39.1486 21.4367 39.2604C20.9967 39.3723 20.6107 39.6366 20.3472 40.0063C20.0837 40.376 19.9597 40.8271 19.9973 41.2796C20.035 41.7321 20.2317 42.1566 20.5527 42.4776C20.8737 42.7987 21.2981 42.9955 21.7504 43.0331C22.2028 43.0708 22.6538 42.9468 23.0234 42.6832C23.393 42.4196 23.6572 42.0335 23.7691 41.5934C23.8809 41.1534 23.8332 40.688 23.6343 40.2798L27.2375 36.6851C25.9228 39.6771 25.4278 42.9651 25.8035 46.2116C26.1791 49.4581 27.4118 52.5462 29.375 55.1586L28.3187 56.2183C28.2023 56.3354 28.137 56.4939 28.137 56.659C28.137 56.8242 28.2023 56.9826 28.3187 57.0997L31.0593 59.8411C31.176 59.9585 31.3345 60.0248 31.5 60.0255C31.5824 60.0256 31.6641 60.0093 31.7403 59.9777C31.8164 59.946 31.8856 59.8996 31.9437 59.8411L34.6875 57.0997C34.8039 56.9826 34.8692 56.8242 34.8692 56.659C34.8692 56.4939 34.8039 56.3354 34.6875 56.2183L31.9531 53.4613ZM56.6406 29.6583L58.4968 31.515L56.6406 33.3718L54.7843 31.515L56.6406 29.6583ZM40.625 21.4624C40.7178 21.3688 40.8364 21.3048 40.9657 21.2787C41.095 21.2526 41.2291 21.2654 41.351 21.3157C41.473 21.3659 41.5772 21.4512 41.6506 21.5609C41.724 21.6705 41.7632 21.7994 41.7632 21.9313C41.7632 22.0632 41.724 22.1922 41.6506 22.3018C41.5772 22.4114 41.473 22.4967 41.351 22.5469C41.2291 22.5972 41.095 22.61 40.9657 22.5839C40.8364 22.5578 40.7178 22.4938 40.625 22.4002C40.5634 22.3386 40.5145 22.2655 40.4811 22.1851C40.4478 22.1046 40.4306 22.0184 40.4306 21.9313C40.4306 21.8442 40.4478 21.758 40.4811 21.6775C40.5145 21.5971 40.5634 21.524 40.625 21.4624ZM30.125 30.1428C30.3065 29.9604 30.5222 29.8157 30.7598 29.7169C30.9973 29.6181 31.2521 29.5673 31.5093 29.5673C31.7666 29.5673 32.0214 29.6181 32.2589 29.7169C32.4965 29.8157 32.7122 29.9604 32.8937 30.1428C33.1681 30.4168 33.355 30.766 33.4308 31.1462C33.5067 31.5265 33.4681 31.9207 33.3199 32.279C33.1717 32.6373 32.9205 32.9436 32.5982 33.1591C32.276 33.3746 31.897 33.4896 31.5093 33.4896C31.1217 33.4896 30.7427 33.3746 30.4204 33.1591C30.0982 32.9436 29.847 32.6373 29.6988 32.279C29.5506 31.9207 29.512 31.5265 29.5878 31.1462C29.6637 30.766 29.8506 30.4168 30.125 30.1428ZM22.3875 41.5833C22.2599 41.6897 22.0971 41.7445 21.9311 41.737C21.7651 41.7295 21.608 41.6602 21.4905 41.5427C21.373 41.4252 21.3037 41.268 21.2962 41.102C21.2887 40.936 21.3436 40.7731 21.45 40.6455C21.575 40.5226 21.7434 40.4537 21.9187 40.4537C22.0941 40.4537 22.2624 40.5226 22.3875 40.6455C22.4491 40.7071 22.4979 40.7801 22.5313 40.8606C22.5646 40.9411 22.5818 41.0273 22.5818 41.1144C22.5818 41.2015 22.5646 41.2877 22.5313 41.3682C22.4979 41.4486 22.4491 41.5217 22.3875 41.5833ZM31.5093 58.5032L29.6531 56.6465L31.5093 54.7898L33.3656 56.6465L31.5093 58.5032Z" fill="white"/>
</g>
<defs>
<clipPath id="clip0_46_92">
<rect width="40" height="40.0103" fill="white" transform="translate(20 20.0152)"/>
</clipPath>
</defs>
</svg>
