<svg width="80" height="81" viewBox="0 0 80 81" fill="none" xmlns="http://www.w3.org/2000/svg">
<ellipse cx="40" cy="40.0204" rx="40" ry="40.0103" fill="#FFAF00"/>
<g clip-path="url(#clip0_46_112)">
<path d="M35.782 45.6947C35.6309 45.6947 35.4787 45.6427 35.3545 45.5369L31.0812 41.8973C30.9338 41.7716 30.8491 41.588 30.8491 41.3941C30.8491 41.2006 30.9342 41.0171 31.0812 40.8914L35.3545 37.2517C35.632 37.0151 36.0488 37.0486 36.2854 37.3262C36.5216 37.6041 36.4884 38.021 36.2106 38.2573L32.528 41.3941L36.2106 44.531C36.4884 44.7677 36.5216 45.1846 36.2854 45.4621C36.1546 45.6158 35.9688 45.6947 35.782 45.6947Z" fill="white"/>
<path d="M44.218 45.6947C44.0312 45.6947 43.8454 45.6158 43.715 45.4621C43.4784 45.1846 43.5119 44.7677 43.7894 44.531L47.472 41.3941L43.7894 38.2573C43.5119 38.021 43.4784 37.6041 43.715 37.3262C43.9512 37.0486 44.3684 37.0151 44.6455 37.2517L48.9188 40.8914C49.0662 41.0171 49.1509 41.2006 49.1509 41.3941C49.1509 41.588 49.0662 41.7716 48.9188 41.8973L44.6455 45.5369C44.5213 45.6427 44.3691 45.6947 44.218 45.6947Z" fill="white"/>
<path d="M38.4872 48.4246C38.4419 48.4246 38.3962 48.4198 38.3501 48.4102C37.9934 48.3351 37.7649 47.9845 37.8401 47.6277L40.5034 34.9796C40.5785 34.6228 40.9286 34.3943 41.2857 34.4695C41.6424 34.5446 41.8709 34.8948 41.7957 35.252L39.1325 47.9001C39.0669 48.2112 38.7927 48.4246 38.4872 48.4246Z" fill="white"/>
<path d="M55.566 55.3154H24.434C21.9892 55.3154 20 53.326 20 50.8803V24.4503C20 22.0049 21.9892 20.0152 24.434 20.0152L55.566 20.0152C58.0108 20.0152 60 22.0049 60 24.4503V50.8803C60 53.326 58.0108 55.3154 55.566 55.3154ZM24.434 21.3363C22.7174 21.3363 21.3208 22.7333 21.3208 24.4503V50.8803C21.3208 52.5973 22.7174 53.9943 24.434 53.9943H55.566C57.2826 53.9943 58.6792 52.5973 58.6792 50.8803V24.4503C58.6792 22.7333 57.2826 21.3363 55.566 21.3363L24.434 21.3363Z" fill="white"/>
<path d="M59.3396 30.5925L20.6604 30.5925C20.2955 30.5925 20 30.2968 20 29.9319C20 29.5674 20.2955 29.2714 20.6604 29.2714L59.3396 29.2714C59.7044 29.2714 60 29.5674 60 29.9319C60 30.2968 59.7044 30.5925 59.3396 30.5925Z" fill="white"/>
<path d="M31.2831 27.4316C30.1312 27.4316 29.1933 26.4935 29.1933 25.3412C29.1933 24.1886 30.1312 23.2509 31.2831 23.2509C32.4355 23.2509 33.373 24.1886 33.373 25.3412C33.373 26.4935 32.4355 27.4316 31.2831 27.4316ZM31.2831 24.572C30.8594 24.572 30.5141 24.917 30.5141 25.3412C30.5141 25.7655 30.8594 26.1105 31.2831 26.1105C31.7073 26.1105 32.0522 25.7655 32.0522 25.3412C32.0522 24.917 31.7073 24.572 31.2831 24.572Z" fill="white"/>
<path d="M24.8622 27.4114C23.7098 27.4114 22.7723 26.4736 22.7723 25.321C22.7723 24.1683 23.7098 23.2306 24.8622 23.2306C26.0145 23.2306 26.952 24.1683 26.952 25.321C26.952 26.4736 26.0145 27.4114 24.8622 27.4114ZM24.8622 24.5517C24.4384 24.5517 24.0931 24.8971 24.0931 25.321C24.0931 25.7452 24.4384 26.0903 24.8622 26.0903C25.2863 26.0903 25.6313 25.7452 25.6313 25.321C25.6313 24.8971 25.2863 24.5517 24.8622 24.5517Z" fill="white"/>
<path d="M37.7042 27.4515C36.5522 27.4515 35.6147 26.5138 35.6147 25.3611C35.6147 24.2089 36.5522 23.2711 37.7042 23.2711C38.8565 23.2711 39.794 24.2089 39.794 25.3611C39.794 26.5138 38.8565 27.4515 37.7042 27.4515ZM37.7042 24.5918C37.2804 24.5918 36.9354 24.9369 36.9354 25.3611C36.9354 25.7854 37.2804 26.1304 37.7042 26.1304C38.1283 26.1304 38.4732 25.7854 38.4732 25.3611C38.4732 24.9369 38.1283 24.5918 37.7042 24.5918Z" fill="white"/>
</g>
<defs>
<clipPath id="clip0_46_112">
<rect width="40" height="40.0103" fill="white" transform="translate(20 20.0152)"/>
</clipPath>
</defs>
</svg>
